<svg xmlns="http://www.w3.org/2000/svg" viewBox="0 0 231 231"><path d="M33.83,33.83a115.5,115.5,0,1,1,0,163.34,115.49,115.49,0,0,1,0-163.34Z" style="fill:#ff184e;"/><path d="m115.5 51.75a63.75 63.75 0 0 0-10.5 126.63v14.09a115.5 115.5 0 0 0-53.729 19.027 115.5 115.5 0 0 0 128.46 0 115.5 115.5 0 0 0-53.729-19.029v-14.084a63.75 63.75 0 0 0 53.25-62.881 63.75 63.75 0 0 0-63.65-63.75 63.75 63.75 0 0 0-0.09961 0z" style="fill:#ffc1c1;"/><path d="m141.74 195a114.93 114.93 0 0 1 37.912 16.45l0.07 0.05c-1.17 0.79-2.3601 1.55-3.5601 2.29a115.55 115.55 0 0 1-120.95 0.21q-2.0001-1.23-4.0002-2.54a114.79 114.79 0 0 1 38.002-16.5 116.21 116.21 0 0 1 15.791-2.49v-14.57c1.32 0.22 2.6501 0.39 4.0002 0.51 2.0001 0.19 4.0002 0.28 6.1202 0.29a64.333 64.33 0 0 0 8.8804-0.62c0.67003-0.09 1.3401-0.2 2.0001-0.31v14.69a118 118 0 0 1 15.741 2.54z" style="fill:#0e00b1;"/><path d="m79.292 212a3.4601 3.46 0 0 0 3.8902 5.07 3.3801 3.38 0 0 0 2.1001-1.61 3.4701 3.47 0 0 0-1.2801-4.72 3.4201 3.42 0 0 0-2.6201-0.34 3.5101 3.51 0 0 0-2.0901 1.6zm60.122 0.46a3.4901 3.49 0 0 0 1.21 4.7h0.06a3.4601 3.46 0 0 0 4.7202-1.27l0.07-0.13a3.4601 3.46 0 0 0-1.34-4.6 3.4601 3.46 0 0 0-2.5801-0.32 3.5301 3.53 0 0 0-2.1001 1.61zm9.8004 5.7 5.8602 5.87c-1.39 0.5-2.7901 1-4.2102 1.44l-4.4802-4.47a7.5203 7.52 0 0 1-1.9401 0.81 7.8303 7.83 0 0 1-6.0002-0.79 7.8703 7.87 0 0 1-2.9201-10.69v-0.07a7.8903 7.89 0 0 1 10.77-2.88l0.12 0.07a7.8603 7.86 0 0 1 2.7901 10.62v0.07zm-37.701-2.36-9.5004 9.51v4.9c-1.35-0.16-2.6801-0.33-4.0002-0.54v-6l0.58002-0.58 10.1-10.09a7.8703 7.87 0 1 1 2.8401 2.86zm7.3203-5.91a3.4601 3.46 0 1 0-1.6101 2.1 3.3801 3.38 0 0 0 1.6101-2.1zm-29.741 7.82 3.0901 3.1 0.59002 0.59v7.36c-1.3401-0.26-2.6801-0.55-4.0002-0.87v-4.84l-2.5101-2.51a7.5203 7.52 0 0 1-1.9401 0.81 7.8803 7.88 0 1 1 1.9101-14.43 7.8703 7.87 0 0 1 2.8901 10.75z" style="fill:#d1fffe;"/><path d="m137.38 11.148c-12.23 1.9593-18.511 14.606-43.436 9.4915-11.285-3.2054-16.406-3.573-20.389 0.58594-4.1548 4.3384-7.033 12.435-9.8184 21.706-2.1354 7.4136-3.7187 14.381-4.7461 21.646h112.7c-3.4878-24.293-10.822-43.281-25.182-51.061-3.5314-1.623-6.5274-2.2959-9.1289-2.3613z" style="fill:#583D00;"/><path d="m114.37 43.383c-19.445 0.088-38.524 2.0724-52.379 5.6992-1.2766 4.5795-2.4317 10.169-3.2285 16.807h113.11c-0.83731-6.0107-1.9164-11.674-3.3184-16.924-15.229-3.8842-34.873-5.6693-54.18-5.582z" style="fill:#AF892E;"/><path d="m115.5 55.773c-58.39 0-105.73 15.476-105.73 34.57h0.0312c0 11.295 16.496 21.319 42.126 27.627-0.10331-7.7704 2.788-21.904 5.2734-31.031 6.0935-1.7168 6.9294-1.8971 13.167-2.9919 14.874-2.8256 29.99-4.2037 45.133-4.1153 15.143-0.0884 30.259 1.2897 45.133 4.1153 6.2372 1.0947 7.2065 1.2751 13.3 2.9919 2.4854 9.1267 5.3768 23.26 5.2734 31.031 25.63-6.3082 41.993-16.332 41.993-27.627h0.0312c0-19.093-47.34-34.57-105.73-34.57z" style="fill:#462D00;"/><path d="m72.088 83.533c-6.9765 1.1147-13.357 2.856-18.439 4.3477-1.1861 7.415-2.0038 18.858-1.8926 26.293 4.3278-0.62795 10.155-1.3644 13.295-1.6465-0.40554 0.30198 2.7344-17.827 7.0371-28.994zm86.824 0c4.3028 11.167 7.4426 29.296 7.0371 28.994 3.1396 0.28213 8.9671 1.0185 13.295 1.6465 0.11119-7.4351-0.70652-18.878-1.8926-26.293-5.0822-1.4916-11.463-3.2329-18.439-4.3477z" style="fill:#a0a0a0;"/><path d="m86.851 100.39a4.94 4.94 0 1 0 4.9297 5 5 5 0 0 0-4.9297-5zm57.221 0a4.94 4.94 0 1 0 4.9394 4.9394 4.94 4.94 0 0 0-4.9394-4.9394z" style="fill:#000;"/><path d="m86.207 89.365c-25.504 0-21.503 6.8561-21.035 19.596 0.80177 18.121 17.763 16.514 21.201 16.639 14.758-0.041 20.518-8.227 22.951-22.932 1.8166-10.731-9.251-13.174-23.117-13.303zm58.598 0c-13.866 0.1284-24.936 2.5717-23.119 13.303 2.4332 14.705 8.1936 22.891 22.951 22.932 3.4383-0.125 20.399 1.4828 21.201-16.639 0-18.965-0.47958-19.596-21.033-19.596z" style="fill:#ff23fa;opacity:0.39;"/><path d="m169.87 90.255a0.51 0.51 0 0 0-0.43991-0.52 167.64 167.64 0 0 0-22.6-1.6801c-12 0-27.47 3.7601-30.17 3.7601h-2.4c-1.2499 0-5.29-0.80996-10.45-1.6801a124.35 124.35 0 0 0-19.72-2.08 166.18 166.18 0 0 0-19.31 1.24c-1.56 0.17999-2.69 0.35009-3.2899 0.44009a0.51 0.51 0 0 0-0.44007 0.52l-0.091 6.4501a0.57 0.57 0 0 0 0.33012 0.52l0.73994 0.23992c1.08 0.41992 1.0001 19.85 6.78 24.71 3.4401 2.8599 6.51 4.4899 19.42 4.4899 7.4699 0 12.17-1.9999 16.63-8 3.21-4.32 6.0999-14.55 6.0999-14.55 0.82006-4.07 3.7702-4.52 4.43-4.5801h0.12068c0.11078 0 3.66 0.0593 4.57 4.5801 0 0 2.8599 10.22 6.0699 14.54 4.4601 5.9999 9.1601 8 16.63 8 12.91 0 16-1.63 19.42-4.4901 5.7898-4.86 5.6998-24.29 6.78-24.71l0.73994-0.23993a0.57 0.57 0 0 0 0.32996-0.52l-0.12068-6.4501zm-65 23c-1.9101 4.5-6.8 10.29-13.7 10.64-20.7 0.99985-21.65-4.7401-23-9.3201a31.45 31.45 0 0 1-1.2099-13.18c0.53997-4.5799 1.7-7.2699 3.7801-8.6201a9.3 9.3 0 0 1 4.3499-1.51 85.07 85.07 0 0 1 11.4-0.52 59.23 59.23 0 0 1 9.2099 0.69999c7.37 1.2 12.35 3.7001 12.35 6.1601a46.12 46.12 0 0 1-3.23 15.64zm58 1.3201c-1.34 4.5799-2.29 10.36-23 9.3201-6.91-0.3501-11.81-6.1401-13.71-10.64a46.35 46.35 0 0 1-3.22-15.64c0-3.39 9.43-6.8599 21.56-6.8599 12.13 0 14 0.89996 15.75 1.9999 2.08 1.3502 3.2398 4 3.77 8.6201a31.23 31.23 0 0 1-1.1601 13.17z" style="fill:#000;"/><path d="m122.83 151.88a10.49 10.489 0 0 1-14.66 0" style="fill:none;stroke-linecap:round;stroke-linejoin:round;stroke-width:6.1996px;stroke:#000;"/></svg>